<?xml version="1.0" encoding="UTF-8" standalone="no"?>
<!DOCTYPE svg PUBLIC "-//W3C//DTD SVG 1.1//EN" "http://www.w3.org/Graphics/SVG/1.1/DTD/svg11.dtd">
<svg width="100%" height="100%" viewBox="0 0 1920 1080" version="1.1" xmlns="http://www.w3.org/2000/svg" xmlns:xlink="http://www.w3.org/1999/xlink" xml:space="preserve" xmlns:serif="http://www.serif.com/" style="fill-rule:evenodd;clip-rule:evenodd;stroke-linejoin:round;stroke-miterlimit:2;">
    <g id="左目" transform="matrix(1.33869,0,0,1.35019,-786.218,-3403.9)">
        <g id="白目" transform="matrix(1,0,0,1,11.156,-1.23956)">
            <ellipse cx="1273.64" cy="2949.31" rx="494.104" ry="320.169" style="fill:rgb(235,235,235);"/>
            <clipPath id="_clip1">
                <ellipse cx="1273.64" cy="2949.31" rx="494.104" ry="320.169"/>
            </clipPath>
            <g clip-path="url(#_clip1)">
                <g id="虹彩" transform="matrix(1.27606,0,0,1.1073,-449.928,-353.383)">
                    <ellipse cx="1276.64" cy="2974.96" rx="147.862" ry="275.844" style="fill:rgb(255,170,223);"/>
                    <clipPath id="_clip2">
                        <ellipse cx="1276.64" cy="2974.96" rx="147.862" ry="275.844"/>
                    </clipPath>
                    <g clip-path="url(#_clip2)">
                        <g id="虹彩1" transform="matrix(2.99651e-16,5.63952,-1.96191,1.38442e-16,5934.6,-3162.61)">
                            <path d="M1140.31,2265.55C1083.03,2267.62 1036.53,2316.18 1036.53,2375.52C1036.53,2434.86 1083.03,2483.43 1140.31,2485.49C1131.13,2454.38 1123.68,2415.81 1123.68,2375.52C1123.68,2335.23 1131.13,2296.67 1140.31,2265.55Z" style="fill-opacity:0.15;"/>
                            <clipPath id="_clip3">
                                <path d="M1140.31,2265.55C1083.03,2267.62 1036.53,2316.18 1036.53,2375.52C1036.53,2434.86 1083.03,2483.43 1140.31,2485.49C1131.13,2454.38 1123.68,2415.81 1123.68,2375.52C1123.68,2335.23 1131.13,2296.67 1140.31,2265.55Z"/>
                            </clipPath>
                            <g clip-path="url(#_clip3)">
                                <g id="虹彩2" transform="matrix(0.815214,8.9497e-32,5.59356e-33,1,190.586,-2.26003)">
                                    <path d="M1140.31,2265.55C1083.03,2267.62 1036.53,2316.18 1036.53,2375.52C1036.53,2434.86 1083.03,2483.43 1140.31,2485.49C1117.96,2462.33 1099.82,2421.03 1099.82,2375.52C1099.82,2330.01 1117.96,2288.71 1140.31,2265.55Z" style="fill-opacity:0.2;"/>
                                </g>
                            </g>
                        </g>
                        <g id="反射2" transform="matrix(1.13985,0,0,1.97489,-218.864,-2451.28)">
                            <ellipse cx="1236.58" cy="2807.11" rx="17.073" ry="34.306" style="fill:white;"/>
                        </g>
                        <g id="反射1" transform="matrix(0.783662,0,0,0.9031,386.588,307.485)">
                            <ellipse cx="1236.58" cy="2807.11" rx="17.073" ry="34.306" style="fill:white;"/>
                        </g>
                        <g id="瞳孔" transform="matrix(1.15823,0,0,0.9031,-86.3751,294.015)">
                            <ellipse cx="1173.45" cy="2966.43" rx="44.813" ry="139.529"/>
                        </g>
                    </g>
                </g>
                <g id="白目影" transform="matrix(1.64344e-16,2.68395,-4.55522,2.78927e-16,12085.2,-172.246)">
                    <path d="M1140.31,2265.55C1083.03,2267.62 1036.53,2316.18 1036.53,2375.52C1036.53,2434.86 1083.03,2483.43 1140.31,2485.49C1109.96,2467.16 1085.32,2424.2 1085.32,2375.52C1085.32,2326.85 1109.96,2283.88 1140.31,2265.55Z" style="fill-opacity:0.1;"/>
                </g>
            </g>
        </g>
        <path id="まつげ" d="M780.609,2923.72C789.468,2785.1 920.758,2673.44 1042.06,2617.84C1163.35,2562.24 1385.67,2538.38 1511.05,2577.84C1570.52,2596.56 1814.59,2673.38 1814.59,2673.38L1757.76,2729.53C1780.08,2730.67 1821.59,2889.15 1807.6,2949.12C1790.91,3020.66 1713.78,3112.77 1713.78,3112.77C1713.78,3112.77 1759.64,2912.48 1723.75,2857.06C1677.99,2786.37 1595.73,2713.12 1483.24,2673.21C1370.75,2633.29 1186.16,2638.25 1077.07,2677.76C967.977,2717.27 865.859,2799.16 780.609,2923.72Z"/>
    </g>
</svg>
