<?xml version="1.0" encoding="UTF-8" standalone="no"?>
<!DOCTYPE svg PUBLIC "-//W3C//DTD SVG 1.1//EN" "http://www.w3.org/Graphics/SVG/1.1/DTD/svg11.dtd">
<svg width="100%" height="100%" viewBox="0 0 2481 3508" version="1.1" xmlns="http://www.w3.org/2000/svg" xmlns:xlink="http://www.w3.org/1999/xlink" xml:space="preserve" xmlns:serif="http://www.serif.com/" style="fill-rule:evenodd;clip-rule:evenodd;stroke-linejoin:round;stroke-miterlimit:2;">
    <g id="レイヤー6" transform="matrix(17.8906,0,0,19.2141,-20274.1,-33959.7)">
        <g transform="matrix(0.0580714,0,0,0.0540715,1133.07,1766.64)">
            <path d="M1205.13,395.392L1267.78,939.348L1396.88,633.269L1390.33,965.398L1668.81,493.952L1504.8,1016.36L1747.24,789.257L1606.16,1090.01L2052.32,772.587L1690,1183.12L2003.85,1074.26L1752.65,1291.63L2289.34,1183.12L1791.37,1410.79L2122.36,1439L1804.47,1535.4L2338.89,1654.57L1791.37,1660.01L2082.28,1820.41L1752.65,1779.18L2192.41,2105.41L1690,1887.69L1890.52,2152.53L1606.16,1980.8L1875.21,2457.69L1504.8,2054.45L1580.26,2377.96L1390.33,2105.41L1442.15,2650.5L1267.78,2131.46L1205.13,2457.69L1142.48,2131.46L968.106,2650.5L1019.92,2105.41L829.999,2377.96L905.458,2054.45L535.046,2457.69L804.092,1980.8L519.734,2152.53L720.252,1887.69L217.849,2105.41L657.604,1779.18L327.98,1820.41L618.886,1660.01L71.362,1654.57L605.789,1535.4L287.892,1439L618.886,1410.79L120.913,1183.12L657.604,1291.63L406.403,1074.26L720.252,1183.12L357.935,772.587L804.092,1090.01L663.02,789.257L905.458,1016.36L741.444,493.952L1019.92,965.398L1013.37,633.269L1142.48,939.348L1205.13,395.392ZM1204.93,497.292L1261.89,991.855L1379.27,713.569L1373.32,1015.54L1626.51,586.901L1477.39,1061.88L1697.81,855.392L1569.55,1128.83L1975.2,840.236L1645.78,1213.49L1931.13,1114.52L1702.74,1312.15L2190.7,1213.49L1737.94,1420.49L2038.88,1446.14L1749.85,1533.79L2235.75,1642.13L1737.94,1647.08L2002.43,1792.91L1702.74,1755.43L2102.56,2052.03L1645.78,1854.08L1828.09,2094.88L1569.55,1938.74L1814.17,2372.33L1477.39,2005.7L1546,2299.83L1373.32,2052.03L1420.43,2547.63L1261.89,2075.72L1204.93,2372.33L1147.97,2075.72L989.431,2547.63L1036.54,2052.03L863.864,2299.83L932.471,2005.7L595.693,2372.33L840.309,1938.74L581.772,2094.88L764.082,1854.08L307.299,2052.03L707.123,1755.43L407.429,1792.91L671.92,1647.08L174.113,1642.13L660.012,1533.79L370.981,1446.14L671.92,1420.49L219.164,1213.49L707.123,1312.15L478.731,1114.52L764.082,1213.49L434.664,840.236L840.309,1128.83L712.047,855.392L932.471,1061.88L783.35,586.901L1036.54,1015.54L1030.59,713.569L1147.97,991.855L1204.93,497.292Z" style="fill:rgb(220,27,68);"/>
        </g>
        <g transform="matrix(1.06984,0,0,1.06984,-132.479,-44.2813)">
            <path d="M1228.16,1796.81C1233.74,1797.95 1244.42,1797.5 1249.58,1797.32C1258.54,1797.02 1268.47,1799.2 1276.38,1794.97C1285.18,1790.27 1284.77,1777.53 1274.8,1774.4C1269.08,1772.61 1266.3,1774.1 1260.78,1773.51C1259.96,1773.42 1262.42,1773.3 1263.23,1773.15C1264.87,1772.86 1266.6,1772.82 1268.13,1772.16C1269.74,1771.48 1273.62,1768.42 1273.71,1766.17C1273.81,1763.65 1270.33,1759.8 1268.24,1759.1C1260.2,1756.39 1259.86,1759.38 1251.71,1757.37C1250.71,1757.13 1253.73,1756.98 1254.75,1756.81C1257.03,1756.43 1263.49,1756.4 1262.99,1751.95C1262.23,1745.18 1253.89,1746.2 1250.01,1742.87C1248.91,1741.94 1250.99,1735.17 1250.47,1735.1C1249,1734.9 1248.07,1736.85 1246.99,1737.87C1245.46,1739.29 1244.12,1740.9 1242.66,1742.39C1238.55,1746.56 1232.96,1750.49 1236.71,1757.1C1238.09,1759.54 1240.03,1758.87 1242.46,1759.55C1243.01,1759.7 1243.98,1760.3 1243.98,1760.3C1243.98,1760.3 1240.65,1760.59 1239,1760.42C1233.54,1759.88 1224.79,1759.5 1221.74,1765.89C1220.53,1768.44 1222.2,1773.78 1224.64,1775.13C1226.83,1776.34 1229.54,1776.13 1232.01,1776.46C1233.79,1776.69 1240.66,1777.61 1240.66,1777.61C1240.66,1777.61 1233.87,1777.09 1232.13,1777.3C1226.7,1777.94 1218.86,1779.03 1215.46,1785.04C1211.82,1791.49 1222.74,1796.72 1228.16,1796.81Z" style="fill:rgb(148,100,100);"/>
        </g>
    </g>
</svg>
